<svg width="36" height="36" viewBox="0 0 36 36" fill="none" xmlns="http://www.w3.org/2000/svg">
<rect x="5" y="16" width="5" height="5" rx="1" fill="white"/>
<rect x="5" y="16" width="5" height="5" rx="1" fill="white"/>
<rect x="5" y="9" width="5" height="5" rx="1" fill="white"/>
<rect x="12" y="16" width="5" height="5" rx="1" fill="white"/>
<rect x="12" y="16" width="5" height="5" rx="1" fill="white"/>
<rect x="12" y="9" width="5" height="5" rx="1" fill="white"/>
<rect x="5" y="23" width="26" height="5" rx="1" fill="white"/>
<rect x="19" y="16" width="5" height="5" rx="1" fill="white"/>
<rect x="19" y="16" width="5" height="5" rx="1" fill="white"/>
<rect x="19" y="9" width="5" height="5" rx="1" fill="white"/>
<rect x="26" y="16" width="5" height="5" rx="1" fill="white"/>
<rect x="26" y="16" width="5" height="5" rx="1" fill="white"/>
<rect x="26" y="9" width="5" height="5" rx="1" fill="white"/>
<rect x="1" y="6" width="34" height="25" rx="4" stroke="white" stroke-width="2"/>
</svg>
